{
  "asset": {
    "version": "2.0",
    "generator": "Codex temporary T-shape generator"
  },
  "scene": 0,
  "scenes": [
    {
      "nodes": [
        0
      ]
    }
  ],
  "nodes": [
    {
      "mesh": 0
    }
  ],
  "meshes": [
    {
      "primitives": [
        {
          "attributes": {
            "POSITION": 0
          },
          "material": 0
        }
      ]
    }
  ],
  "materials": [
    {
      "pbrMetallicRoughness": {
        "baseColorFactor": [
          0.95,
          0.75,
          0.15,
          1
        ],
        "metallicFactor": 0.1,
        "roughnessFactor": 0.7
      }
    }
  ],
  "buffers": [
    {
      "uri": "data:application/octet-stream;base64,",
      "byteLength": 864
    }
  ],
  "bufferViews": [
    {
      "buffer": 0,
      "byteOffset": 0,
      "byteLength": 864,
      "target": 34962
    }
  ],
  "accessors": [
    {
      "bufferView": 0,
      "byteOffset": 0,
      "componentType": 5126,
      "count": 72,
      "type": "VEC3",
      "min": [
        -1,
        -1.0499999999999998,
        -0.15
      ],
      "max": [
        1,
        0.8500000000000001,
        0.15
      ]
    }
  ]
}